<svg width="328" height="157" viewBox="0 0 328 157" fill="none" xmlns="http://www.w3.org/2000/svg">
<rect width="328" height="156.75" rx="4" fill="black"/>
<rect x="18" y="32.25" width="18" height="18" rx="2" fill="#202020"/>
<rect x="18" y="51.25" width="18" height="18" rx="2" fill="#202020"/>
<rect x="18" y="70.25" width="18" height="18" rx="2" fill="#202020"/>
<rect x="37" y="32.25" width="18" height="18" rx="2" fill="#202020"/>
<rect x="37" y="51.25" width="18" height="18" rx="2" fill="#404040"/>
<rect x="37" y="70.25" width="18" height="18" rx="2" fill="#202020"/>
<rect x="56" y="79.75" width="18" height="18" rx="2" fill="#202020"/>
<rect x="56" y="22.75" width="18" height="18" rx="2" fill="#202020"/>
<rect x="56" y="41.75" width="18" height="18" rx="2" fill="#404040"/>
<rect x="56" y="60.75" width="18" height="18" rx="2" fill="#202020"/>
<rect x="75" y="75" width="18" height="18" rx="2" fill="#202020"/>
<rect x="75" y="18" width="18" height="18" rx="2" fill="#202020"/>
<rect x="75" y="37" width="18" height="18" rx="2" fill="#404040"/>
<rect x="75" y="56" width="18" height="18" rx="2" fill="#202020"/>
<rect x="94" y="79.75" width="18" height="18" rx="2" fill="#202020"/>
<rect x="94" y="22.75" width="18" height="18" rx="2" fill="#202020"/>
<rect x="94" y="41.75" width="18" height="18" rx="2" fill="#404040"/>
<rect x="94" y="60.75" width="18" height="18" rx="2" fill="#202020"/>
<rect x="116.659" y="80.25" width="18" height="18" rx="2" transform="rotate(15 116.659 80.25)" fill="#404040"/>
<rect x="113" y="22.75" width="18" height="18" rx="2" fill="#202020"/>
<rect x="113" y="41.75" width="18" height="18" rx="2" fill="#202020"/>
<rect x="113" y="60.75" width="18" height="18" rx="2" fill="#202020"/>
<rect x="138.5" y="86.75" width="18" height="18" rx="2" transform="rotate(30 138.5 86.75)" fill="#202020"/>
<path d="M15.75 34.25V86.25C15.75 88.5972 17.6528 90.5 20 90.5H53C53.4142 90.5 53.75 90.8358 53.75 91.25V95.75C53.75 98.0972 55.6528 100 58 100H110.357C111.757 100 113.151 100.187 114.501 100.555L127.047 103.976C128.281 104.313 129.469 104.799 130.586 105.423L142.398 112.024C144.442 113.166 147.025 112.44 148.174 110.399L155.188 97.9482C155.884 96.7123 156.25 95.3177 156.25 93.8992V24.75C156.25 22.4028 154.347 20.5 152 20.5H95.95C95.5634 20.5 95.25 20.1866 95.25 19.8C95.25 17.5632 93.4368 15.75 91.2 15.75H76.8C74.5632 15.75 72.75 17.5632 72.75 19.8C72.75 20.1866 72.4366 20.5 72.05 20.5H58C55.6528 20.5 53.75 22.4028 53.75 24.75V29.25C53.75 29.6642 53.4142 30 53 30H20C17.6528 30 15.75 31.9028 15.75 34.25Z" stroke="#404040" stroke-width="0.5"/>
<rect x="102" y="31.75" width="2" height="38" rx="1" fill="#00FF80"/>
<rect x="64" y="31.75" width="2" height="38" rx="1" fill="#00FF80"/>
<rect x="45" y="41.25" width="2" height="38" rx="1" fill="#00FF80"/>
<rect x="83" y="27" width="2" height="38" rx="1" fill="#00FF80"/>
<path d="M103 88.75C116 88.75 132 93.25 142 99.75" stroke="#00FF80" stroke-width="2" stroke-linecap="round"/>
<rect width="18" height="18" rx="2" transform="matrix(-1 0 0 1 310 32.25)" fill="#202020"/>
<rect width="18" height="18" rx="2" transform="matrix(-1 0 0 1 310 51.25)" fill="#202020"/>
<rect width="18" height="18" rx="2" transform="matrix(-1 0 0 1 310 70.25)" fill="#202020"/>
<rect width="18" height="18" rx="2" transform="matrix(-1 0 0 1 291 32.25)" fill="#202020"/>
<rect width="18" height="18" rx="2" transform="matrix(-1 0 0 1 291 51.25)" fill="#404040"/>
<rect width="18" height="18" rx="2" transform="matrix(-1 0 0 1 291 70.25)" fill="#202020"/>
<rect width="18" height="18" rx="2" transform="matrix(-1 0 0 1 272 79.75)" fill="#202020"/>
<rect width="18" height="18" rx="2" transform="matrix(-1 0 0 1 272 22.75)" fill="#202020"/>
<rect width="18" height="18" rx="2" transform="matrix(-1 0 0 1 272 41.75)" fill="#404040"/>
<rect width="18" height="18" rx="2" transform="matrix(-1 0 0 1 272 60.75)" fill="#202020"/>
<rect width="18" height="18" rx="2" transform="matrix(-1 0 0 1 253 75)" fill="#202020"/>
<rect width="18" height="18" rx="2" transform="matrix(-1 0 0 1 253 18)" fill="#202020"/>
<rect width="18" height="18" rx="2" transform="matrix(-1 0 0 1 253 37)" fill="#404040"/>
<rect width="18" height="18" rx="2" transform="matrix(-1 0 0 1 253 56)" fill="#202020"/>
<rect width="18" height="18" rx="2" transform="matrix(-1 0 0 1 234 79.75)" fill="#202020"/>
<rect width="18" height="18" rx="2" transform="matrix(-1 0 0 1 234 22.75)" fill="#202020"/>
<rect width="18" height="18" rx="2" transform="matrix(-1 0 0 1 234 41.75)" fill="#404040"/>
<rect width="18" height="18" rx="2" transform="matrix(-1 0 0 1 234 60.75)" fill="#202020"/>
<rect width="18" height="18" rx="2" transform="matrix(-0.965926 0.258819 0.258819 0.965926 211.341 80.25)" fill="#404040"/>
<rect width="18" height="18" rx="2" transform="matrix(-1 0 0 1 215 22.75)" fill="#202020"/>
<rect width="18" height="18" rx="2" transform="matrix(-1 0 0 1 215 41.75)" fill="#202020"/>
<rect width="18" height="18" rx="2" transform="matrix(-1 0 0 1 215 60.75)" fill="#202020"/>
<rect width="18" height="18" rx="2" transform="matrix(-0.866025 0.5 0.5 0.866025 189.5 86.75)" fill="#202020"/>
<path d="M312.25 34.25V86.25C312.25 88.5972 310.347 90.5 308 90.5H275C274.586 90.5 274.25 90.8358 274.25 91.25V95.75C274.25 98.0972 272.347 100 270 100H217.643C216.243 100 214.849 100.187 213.499 100.555L200.953 103.976C199.719 104.313 198.531 104.799 197.414 105.423L185.602 112.024C183.558 113.166 180.975 112.44 179.826 110.399L172.812 97.9482C172.116 96.7123 171.75 95.3177 171.75 93.8992V24.75C171.75 22.4028 173.653 20.5 176 20.5H232.05C232.437 20.5 232.75 20.1866 232.75 19.8C232.75 17.5632 234.563 15.75 236.8 15.75H251.2C253.437 15.75 255.25 17.5632 255.25 19.8C255.25 20.1866 255.563 20.5 255.95 20.5H270C272.347 20.5 274.25 22.4028 274.25 24.75V29.25C274.25 29.6642 274.586 30 275 30H308C310.347 30 312.25 31.9028 312.25 34.25Z" stroke="#404040" stroke-width="0.5"/>
<rect width="2" height="38" rx="1" transform="matrix(-1 0 0 1 226 31.75)" fill="#00FF80"/>
<rect width="2" height="38" rx="1" transform="matrix(-1 0 0 1 264 31.75)" fill="#00FF80"/>
<rect width="2" height="38" rx="1" transform="matrix(-1 0 0 1 283 41.25)" fill="#00FF80"/>
<rect width="2" height="38" rx="1" transform="matrix(-1 0 0 1 245 27)" fill="#00FF80"/>
<path d="M225 88.75C212 88.75 196 93.25 186 99.75" stroke="#00FF80" stroke-width="2" stroke-linecap="round"/>
<path d="M118.463 137.83C118.111 137.83 117.805 137.763 117.543 137.63C117.287 137.497 117.087 137.305 116.943 137.054C116.805 136.798 116.735 136.497 116.735 136.15V133.51C116.735 133.158 116.805 132.857 116.943 132.606C117.087 132.355 117.287 132.163 117.543 132.03C117.805 131.897 118.111 131.83 118.463 131.83C118.815 131.83 119.119 131.899 119.375 132.038C119.631 132.171 119.829 132.363 119.967 132.614C120.106 132.865 120.175 133.163 120.175 133.51H119.455C119.455 133.179 119.367 132.926 119.191 132.75C119.021 132.569 118.778 132.478 118.463 132.478C118.149 132.478 117.901 132.566 117.719 132.742C117.543 132.918 117.455 133.171 117.455 133.502V136.15C117.455 136.481 117.543 136.737 117.719 136.918C117.901 137.094 118.149 137.182 118.463 137.182C118.778 137.182 119.021 137.094 119.191 136.918C119.367 136.737 119.455 136.481 119.455 136.15H120.175C120.175 136.491 120.106 136.79 119.967 137.046C119.829 137.297 119.631 137.491 119.375 137.63C119.119 137.763 118.815 137.83 118.463 137.83ZM123.228 137.814C122.876 137.814 122.572 137.747 122.316 137.614C122.06 137.481 121.86 137.289 121.716 137.038C121.577 136.782 121.508 136.481 121.508 136.134V134.966C121.508 134.614 121.577 134.313 121.716 134.062C121.86 133.811 122.06 133.619 122.316 133.486C122.572 133.353 122.876 133.286 123.228 133.286C123.58 133.286 123.884 133.353 124.14 133.486C124.396 133.619 124.593 133.811 124.732 134.062C124.876 134.313 124.948 134.611 124.948 134.958V136.134C124.948 136.481 124.876 136.782 124.732 137.038C124.593 137.289 124.396 137.481 124.14 137.614C123.884 137.747 123.58 137.814 123.228 137.814ZM123.228 137.174C123.543 137.174 123.788 137.086 123.964 136.91C124.14 136.734 124.228 136.475 124.228 136.134V134.966C124.228 134.625 124.14 134.366 123.964 134.19C123.788 134.014 123.543 133.926 123.228 133.926C122.919 133.926 122.673 134.014 122.492 134.19C122.316 134.366 122.228 134.625 122.228 134.966V136.134C122.228 136.475 122.316 136.734 122.492 136.91C122.673 137.086 122.919 137.174 123.228 137.174ZM128.625 137.75C128.369 137.75 128.145 137.699 127.953 137.598C127.761 137.497 127.612 137.353 127.505 137.166C127.398 136.979 127.345 136.761 127.345 136.51V132.566H125.865V131.91H128.065V136.51C128.065 136.691 128.116 136.835 128.217 136.942C128.318 137.043 128.454 137.094 128.625 137.094H130.025V137.75H128.625ZM132.814 137.83C132.307 137.83 131.902 137.681 131.598 137.382C131.294 137.078 131.142 136.667 131.142 136.15V133.35H131.862V136.15C131.862 136.481 131.947 136.739 132.118 136.926C132.289 137.107 132.521 137.198 132.814 137.198C133.113 137.198 133.347 137.107 133.518 136.926C133.694 136.739 133.782 136.481 133.782 136.15V133.35H134.502V136.15C134.502 136.667 134.347 137.078 134.038 137.382C133.729 137.681 133.321 137.83 132.814 137.83ZM135.747 137.75V133.35H136.379V133.878H136.523L136.411 134.07C136.411 133.825 136.475 133.63 136.603 133.486C136.736 133.342 136.915 133.27 137.139 133.27C137.384 133.27 137.573 133.361 137.707 133.542C137.84 133.723 137.907 133.979 137.907 134.31L137.691 133.878H138.027L137.875 134.07C137.875 133.825 137.941 133.63 138.075 133.486C138.213 133.342 138.395 133.27 138.619 133.27C138.896 133.27 139.109 133.374 139.259 133.582C139.413 133.79 139.491 134.065 139.491 134.406V137.75H138.827V134.398C138.827 134.217 138.787 134.075 138.707 133.974C138.632 133.873 138.52 133.822 138.371 133.822C138.227 133.822 138.112 133.873 138.027 133.974C137.947 134.07 137.907 134.209 137.907 134.39V137.75H137.331V134.398C137.331 134.211 137.288 134.07 137.203 133.974C137.123 133.873 137.008 133.822 136.859 133.822C136.709 133.822 136.597 133.873 136.523 133.974C136.448 134.07 136.411 134.209 136.411 134.39V137.75H135.747ZM140.752 137.75V133.35H141.472V134.19H141.624L141.472 134.358C141.472 134.011 141.576 133.745 141.784 133.558C141.992 133.366 142.28 133.27 142.648 133.27C143.09 133.27 143.442 133.406 143.704 133.678C143.965 133.95 144.096 134.321 144.096 134.79V137.75H143.376V134.87C143.376 134.555 143.29 134.315 143.12 134.15C142.954 133.979 142.728 133.894 142.44 133.894C142.141 133.894 141.904 133.985 141.728 134.166C141.557 134.347 141.472 134.609 141.472 134.95V137.75H140.752ZM145.933 135.43V134.79H148.493V135.43H145.933ZM152.265 137.83C151.903 137.83 151.612 137.734 151.393 137.542C151.175 137.345 151.065 137.078 151.065 136.742L151.209 136.91H151.065V137.75H150.345V131.91H151.065V133.19L151.049 134.19H151.209L151.065 134.358C151.065 134.027 151.175 133.763 151.393 133.566C151.617 133.369 151.908 133.27 152.265 133.27C152.708 133.27 153.063 133.417 153.329 133.71C153.596 134.003 153.729 134.403 153.729 134.91V136.198C153.729 136.699 153.596 137.097 153.329 137.39C153.063 137.683 152.708 137.83 152.265 137.83ZM152.025 137.206C152.329 137.206 152.569 137.115 152.745 136.934C152.921 136.753 153.009 136.491 153.009 136.15V134.95C153.009 134.609 152.921 134.347 152.745 134.166C152.569 133.985 152.329 133.894 152.025 133.894C151.732 133.894 151.497 133.987 151.321 134.174C151.151 134.361 151.065 134.619 151.065 134.95V136.15C151.065 136.481 151.151 136.739 151.321 136.926C151.497 137.113 151.732 137.206 152.025 137.206ZM156.422 137.83C155.958 137.83 155.593 137.713 155.326 137.478C155.06 137.238 154.926 136.915 154.926 136.51C154.926 136.099 155.06 135.777 155.326 135.542C155.593 135.307 155.953 135.19 156.406 135.19H157.766V134.75C157.766 134.478 157.684 134.27 157.518 134.126C157.358 133.977 157.129 133.902 156.83 133.902C156.569 133.902 156.35 133.958 156.174 134.07C155.998 134.177 155.897 134.323 155.87 134.51H155.15C155.198 134.131 155.377 133.83 155.686 133.606C155.996 133.382 156.382 133.27 156.846 133.27C157.353 133.27 157.753 133.401 158.046 133.662C158.34 133.923 158.486 134.278 158.486 134.726V137.75H157.782V136.91H157.662L157.782 136.79C157.782 137.11 157.657 137.363 157.406 137.55C157.161 137.737 156.833 137.83 156.422 137.83ZM156.598 137.262C156.94 137.262 157.22 137.177 157.438 137.006C157.657 136.835 157.766 136.617 157.766 136.35V135.726H156.422C156.182 135.726 155.993 135.793 155.854 135.926C155.716 136.059 155.646 136.241 155.646 136.47C155.646 136.715 155.729 136.91 155.894 137.054C156.065 137.193 156.3 137.262 156.598 137.262ZM161.467 137.814C161.168 137.814 160.907 137.769 160.683 137.678C160.464 137.582 160.288 137.449 160.155 137.278C160.027 137.107 159.95 136.905 159.923 136.67H160.643C160.675 136.825 160.76 136.947 160.899 137.038C161.043 137.129 161.232 137.174 161.467 137.174H161.803C162.086 137.174 162.296 137.118 162.435 137.006C162.574 136.889 162.643 136.734 162.643 136.542C162.643 136.355 162.579 136.209 162.451 136.102C162.328 135.99 162.144 135.915 161.899 135.878L161.307 135.782C160.875 135.707 160.552 135.574 160.339 135.382C160.131 135.185 160.027 134.899 160.027 134.526C160.027 134.131 160.152 133.827 160.403 133.614C160.654 133.395 161.03 133.286 161.531 133.286H161.835C162.256 133.286 162.595 133.385 162.851 133.582C163.107 133.779 163.262 134.046 163.315 134.382H162.595C162.563 134.243 162.483 134.134 162.355 134.054C162.227 133.969 162.054 133.926 161.835 133.926H161.531C161.259 133.926 161.059 133.977 160.931 134.078C160.808 134.179 160.747 134.331 160.747 134.534C160.747 134.715 160.8 134.849 160.907 134.934C161.014 135.019 161.182 135.081 161.411 135.118L162.003 135.214C162.478 135.289 162.822 135.427 163.035 135.63C163.254 135.833 163.363 136.126 163.363 136.51C163.363 136.915 163.232 137.235 162.971 137.47C162.715 137.699 162.326 137.814 161.803 137.814H161.467ZM166.4 137.83C166.053 137.83 165.749 137.761 165.488 137.622C165.232 137.483 165.032 137.289 164.888 137.038C164.749 136.782 164.68 136.486 164.68 136.15V134.95C164.68 134.609 164.749 134.313 164.888 134.062C165.032 133.811 165.232 133.617 165.488 133.478C165.749 133.339 166.053 133.27 166.4 133.27C166.747 133.27 167.048 133.339 167.304 133.478C167.565 133.617 167.765 133.811 167.904 134.062C168.048 134.313 168.12 134.609 168.12 134.95V135.726H165.384V136.15C165.384 136.497 165.472 136.763 165.648 136.95C165.824 137.131 166.075 137.222 166.4 137.222C166.677 137.222 166.901 137.174 167.072 137.078C167.243 136.977 167.347 136.827 167.384 136.63H168.104C168.056 136.998 167.875 137.291 167.56 137.51C167.251 137.723 166.864 137.83 166.4 137.83ZM167.416 135.246V134.95C167.416 134.603 167.328 134.337 167.152 134.15C166.981 133.963 166.731 133.87 166.4 133.87C166.075 133.87 165.824 133.963 165.648 134.15C165.472 134.337 165.384 134.603 165.384 134.95V135.182H167.472L167.416 135.246ZM170.941 137.83C170.504 137.83 170.149 137.683 169.877 137.39C169.61 137.097 169.477 136.699 169.477 136.198V134.91C169.477 134.403 169.61 134.003 169.877 133.71C170.144 133.417 170.498 133.27 170.941 133.27C171.304 133.27 171.594 133.369 171.813 133.566C172.032 133.763 172.141 134.027 172.141 134.358L171.997 134.19H172.157L172.141 133.19V131.91H172.861V137.75H172.141V136.91H171.997L172.141 136.742C172.141 137.078 172.032 137.345 171.813 137.542C171.594 137.734 171.304 137.83 170.941 137.83ZM171.181 137.206C171.48 137.206 171.714 137.113 171.885 136.926C172.056 136.739 172.141 136.481 172.141 136.15V134.95C172.141 134.619 172.056 134.361 171.885 134.174C171.714 133.987 171.48 133.894 171.181 133.894C170.877 133.894 170.637 133.985 170.461 134.166C170.285 134.347 170.197 134.609 170.197 134.95V136.15C170.197 136.491 170.285 136.753 170.461 136.934C170.637 137.115 170.877 137.206 171.181 137.206ZM180.655 137.814C180.356 137.814 180.095 137.769 179.871 137.678C179.652 137.582 179.476 137.449 179.343 137.278C179.215 137.107 179.137 136.905 179.111 136.67H179.831C179.863 136.825 179.948 136.947 180.087 137.038C180.231 137.129 180.42 137.174 180.655 137.174H180.991C181.273 137.174 181.484 137.118 181.623 137.006C181.761 136.889 181.831 136.734 181.831 136.542C181.831 136.355 181.767 136.209 181.639 136.102C181.516 135.99 181.332 135.915 181.087 135.878L180.495 135.782C180.063 135.707 179.74 135.574 179.527 135.382C179.319 135.185 179.215 134.899 179.215 134.526C179.215 134.131 179.34 133.827 179.591 133.614C179.841 133.395 180.217 133.286 180.719 133.286H181.023C181.444 133.286 181.783 133.385 182.039 133.582C182.295 133.779 182.449 134.046 182.503 134.382H181.783C181.751 134.243 181.671 134.134 181.543 134.054C181.415 133.969 181.241 133.926 181.023 133.926H180.719C180.447 133.926 180.247 133.977 180.119 134.078C179.996 134.179 179.935 134.331 179.935 134.534C179.935 134.715 179.988 134.849 180.095 134.934C180.201 135.019 180.369 135.081 180.599 135.118L181.191 135.214C181.665 135.289 182.009 135.427 182.223 135.63C182.441 135.833 182.551 136.126 182.551 136.51C182.551 136.915 182.42 137.235 182.159 137.47C181.903 137.699 181.513 137.814 180.991 137.814H180.655ZM186.068 137.75C185.689 137.75 185.393 137.649 185.18 137.446C184.972 137.243 184.868 136.958 184.868 136.59V134.006H183.628V133.35H184.868V132.11H185.588V133.35H187.348V134.006H185.588V136.59C185.588 136.926 185.748 137.094 186.068 137.094H187.268V137.75H186.068ZM190 137.83C189.536 137.83 189.171 137.713 188.904 137.478C188.638 137.238 188.504 136.915 188.504 136.51C188.504 136.099 188.638 135.777 188.904 135.542C189.171 135.307 189.531 135.19 189.984 135.19H191.344V134.75C191.344 134.478 191.262 134.27 191.096 134.126C190.936 133.977 190.707 133.902 190.408 133.902C190.147 133.902 189.928 133.958 189.752 134.07C189.576 134.177 189.475 134.323 189.448 134.51H188.728C188.776 134.131 188.955 133.83 189.264 133.606C189.574 133.382 189.96 133.27 190.424 133.27C190.931 133.27 191.331 133.401 191.624 133.662C191.918 133.923 192.064 134.278 192.064 134.726V137.75H191.36V136.91H191.24L191.36 136.79C191.36 137.11 191.235 137.363 190.984 137.55C190.739 137.737 190.411 137.83 190 137.83ZM190.176 137.262C190.518 137.262 190.798 137.177 191.016 137.006C191.235 136.835 191.344 136.617 191.344 136.35V135.726H190C189.76 135.726 189.571 135.793 189.432 135.926C189.294 136.059 189.224 136.241 189.224 136.47C189.224 136.715 189.307 136.91 189.472 137.054C189.643 137.193 189.878 137.262 190.176 137.262ZM194.069 139.19V138.534H195.469C195.693 138.534 195.856 138.483 195.957 138.382C196.064 138.281 196.117 138.123 196.117 137.91V137.35L196.133 136.55H195.989L196.125 136.43C196.125 136.75 196.019 137.003 195.805 137.19C195.592 137.377 195.307 137.47 194.949 137.47C194.496 137.47 194.139 137.323 193.877 137.03C193.616 136.731 193.485 136.331 193.485 135.83V134.902C193.485 134.401 193.616 134.003 193.877 133.71C194.139 133.417 194.496 133.27 194.949 133.27C195.307 133.27 195.592 133.363 195.805 133.55C196.019 133.737 196.125 133.99 196.125 134.31L195.989 134.19H196.125V133.35H196.837V137.91C196.837 138.305 196.715 138.617 196.469 138.846C196.229 139.075 195.893 139.19 195.461 139.19H194.069ZM195.165 136.846C195.464 136.846 195.699 136.753 195.869 136.566C196.04 136.379 196.125 136.121 196.125 135.79V134.95C196.125 134.619 196.04 134.361 195.869 134.174C195.699 133.987 195.464 133.894 195.165 133.894C194.861 133.894 194.624 133.985 194.453 134.166C194.288 134.347 194.205 134.609 194.205 134.95V135.79C194.205 136.131 194.288 136.393 194.453 136.574C194.624 136.755 194.861 136.846 195.165 136.846ZM198.866 139.19V138.534H200.266C200.49 138.534 200.653 138.483 200.754 138.382C200.861 138.281 200.914 138.123 200.914 137.91V137.35L200.93 136.55H200.786L200.922 136.43C200.922 136.75 200.815 137.003 200.602 137.19C200.389 137.377 200.103 137.47 199.746 137.47C199.293 137.47 198.935 137.323 198.674 137.03C198.413 136.731 198.282 136.331 198.282 135.83V134.902C198.282 134.401 198.413 134.003 198.674 133.71C198.935 133.417 199.293 133.27 199.746 133.27C200.103 133.27 200.389 133.363 200.602 133.55C200.815 133.737 200.922 133.99 200.922 134.31L200.786 134.19H200.922V133.35H201.634V137.91C201.634 138.305 201.511 138.617 201.266 138.846C201.026 139.075 200.69 139.19 200.258 139.19H198.866ZM199.962 136.846C200.261 136.846 200.495 136.753 200.666 136.566C200.837 136.379 200.922 136.121 200.922 135.79V134.95C200.922 134.619 200.837 134.361 200.666 134.174C200.495 133.987 200.261 133.894 199.962 133.894C199.658 133.894 199.421 133.985 199.25 134.166C199.085 134.347 199.002 134.609 199.002 134.95V135.79C199.002 136.131 199.085 136.393 199.25 136.574C199.421 136.755 199.658 136.846 199.962 136.846ZM204.775 137.83C204.428 137.83 204.124 137.761 203.863 137.622C203.607 137.483 203.407 137.289 203.263 137.038C203.124 136.782 203.055 136.486 203.055 136.15V134.95C203.055 134.609 203.124 134.313 203.263 134.062C203.407 133.811 203.607 133.617 203.863 133.478C204.124 133.339 204.428 133.27 204.775 133.27C205.122 133.27 205.423 133.339 205.679 133.478C205.94 133.617 206.14 133.811 206.279 134.062C206.423 134.313 206.495 134.609 206.495 134.95V135.726H203.759V136.15C203.759 136.497 203.847 136.763 204.023 136.95C204.199 137.131 204.45 137.222 204.775 137.222C205.052 137.222 205.276 137.174 205.447 137.078C205.618 136.977 205.722 136.827 205.759 136.63H206.479C206.431 136.998 206.25 137.291 205.935 137.51C205.626 137.723 205.239 137.83 204.775 137.83ZM205.791 135.246V134.95C205.791 134.603 205.703 134.337 205.527 134.15C205.356 133.963 205.106 133.87 204.775 133.87C204.45 133.87 204.199 133.963 204.023 134.15C203.847 134.337 203.759 134.603 203.759 134.95V135.182H205.847L205.791 135.246ZM208.06 137.75V133.35H208.764V134.19H208.932L208.7 134.71C208.7 134.235 208.801 133.878 209.004 133.638C209.212 133.393 209.519 133.27 209.924 133.27C210.388 133.27 210.756 133.417 211.028 133.71C211.305 133.998 211.444 134.39 211.444 134.886V135.15H210.724V134.95C210.724 134.603 210.639 134.339 210.468 134.158C210.303 133.971 210.065 133.878 209.756 133.878C209.452 133.878 209.212 133.971 209.036 134.158C208.865 134.345 208.78 134.609 208.78 134.95V137.75H208.06Z" fill="white"/>
</svg>
