<svg width="328" height="158" viewBox="0 0 328 158" fill="none" xmlns="http://www.w3.org/2000/svg">
<rect y="0.75" width="328" height="157" rx="4" fill="black"/>
<rect x="25.25" y="17" width="277.5" height="97.5" rx="3.75" stroke="#404040" stroke-width="0.5"/>
<rect x="27" y="18.75" width="18" height="18" rx="2" fill="#202020"/>
<rect x="46" y="18.75" width="18" height="18" rx="2" fill="#202020"/>
<rect x="65" y="18.75" width="18" height="18" rx="2" fill="#202020"/>
<rect x="84" y="18.75" width="18" height="18" rx="2" fill="#202020"/>
<rect x="103" y="18.75" width="18" height="18" rx="2" fill="#202020"/>
<rect x="122" y="18.75" width="18" height="18" rx="2" fill="#202020"/>
<rect x="141" y="18.75" width="18" height="18" rx="2" fill="#202020"/>
<rect x="160" y="18.75" width="18" height="18" rx="2" fill="#202020"/>
<rect x="179" y="18.75" width="18" height="18" rx="2" fill="#202020"/>
<rect x="198" y="18.75" width="18" height="18" rx="2" fill="#202020"/>
<rect x="217" y="18.75" width="18" height="18" rx="2" fill="#202020"/>
<rect x="236" y="18.75" width="18" height="18" rx="2" fill="#202020"/>
<rect x="255" y="18.75" width="18" height="18" rx="2" fill="#202020"/>
<rect x="274" y="18.75" width="27" height="18" rx="2" fill="#202020"/>
<rect x="27" y="37.75" width="27" height="18" rx="2" fill="#202020"/>
<rect x="55" y="37.75" width="18" height="18" rx="2" fill="#202020"/>
<rect x="74" y="37.75" width="18" height="18" rx="2" fill="#202020"/>
<rect x="93" y="37.75" width="18" height="18" rx="2" fill="#202020"/>
<rect x="112" y="37.75" width="18" height="18" rx="2" fill="#202020"/>
<rect x="131" y="37.75" width="18" height="18" rx="2" fill="#202020"/>
<rect x="150" y="37.75" width="18" height="18" rx="2" fill="#202020"/>
<rect x="169" y="37.75" width="18" height="18" rx="2" fill="#202020"/>
<rect x="188" y="37.75" width="18" height="18" rx="2" fill="#202020"/>
<rect x="207" y="37.75" width="18" height="18" rx="2" fill="#202020"/>
<rect x="226" y="37.75" width="18" height="18" rx="2" fill="#202020"/>
<rect x="245" y="37.75" width="18" height="18" rx="2" fill="#202020"/>
<rect x="264" y="37.75" width="18" height="18" rx="2" fill="#202020"/>
<rect x="283" y="37.75" width="18" height="18" rx="2" fill="#202020"/>
<rect x="27" y="56.75" width="32" height="18" rx="2" fill="#202020"/>
<rect x="60" y="56.75" width="18" height="18" rx="2" fill="#404040"/>
<rect x="79" y="56.75" width="18" height="18" rx="2" fill="#404040"/>
<rect x="98" y="56.75" width="18" height="18" rx="2" fill="#404040"/>
<rect x="117" y="56.75" width="18" height="18" rx="2" fill="#404040"/>
<rect x="136" y="56.75" width="18" height="18" rx="2" fill="#202020"/>
<rect x="155" y="56.75" width="18" height="18" rx="2" fill="#202020"/>
<rect x="174" y="56.75" width="18" height="18" rx="2" fill="#404040"/>
<rect x="193" y="56.75" width="18" height="18" rx="2" fill="#404040"/>
<rect x="212" y="56.75" width="18" height="18" rx="2" fill="#404040"/>
<rect x="231" y="56.75" width="18" height="18" rx="2" fill="#404040"/>
<rect x="250" y="56.75" width="18" height="18" rx="2" fill="#202020"/>
<rect x="269" y="56.75" width="32" height="18" rx="2" fill="#202020"/>
<rect x="27" y="75.75" width="41.5" height="18" rx="2" fill="#202020"/>
<rect x="69.5" y="75.75" width="18" height="18" rx="2" fill="#202020"/>
<rect x="88.5" y="75.75" width="18" height="18" rx="2" fill="#202020"/>
<rect x="107.5" y="75.75" width="18" height="18" rx="2" fill="#202020"/>
<rect x="126.5" y="75.75" width="18" height="18" rx="2" fill="#202020"/>
<rect x="145.5" y="75.75" width="18" height="18" rx="2" fill="#202020"/>
<rect x="164.5" y="75.75" width="18" height="18" rx="2" fill="#202020"/>
<rect x="183.5" y="75.75" width="18" height="18" rx="2" fill="#202020"/>
<rect x="202.5" y="75.75" width="18" height="18" rx="2" fill="#202020"/>
<rect x="221.5" y="75.75" width="18" height="18" rx="2" fill="#202020"/>
<rect x="240.5" y="75.75" width="18" height="18" rx="2" fill="#202020"/>
<rect x="259.5" y="75.75" width="41.5" height="18" rx="2" fill="#202020"/>
<rect x="27" y="94.75" width="18" height="18" rx="2" fill="#202020"/>
<rect x="46" y="94.75" width="18" height="18" rx="2" fill="#202020"/>
<rect x="65" y="94.75" width="18" height="18" rx="2" fill="#202020"/>
<rect x="84" y="94.75" width="22.5" height="18" rx="2" fill="#202020"/>
<rect x="107.5" y="94.75" width="94" height="18" rx="2" fill="#404040"/>
<rect x="202.5" y="94.75" width="22.5" height="18" rx="2" fill="#202020"/>
<rect x="226" y="94.75" width="18" height="18" rx="2" fill="#202020"/>
<rect x="245" y="94.75" width="18" height="18" rx="2" fill="#202020"/>
<rect x="264" y="94.75" width="18" height="8.5" rx="2" fill="#202020"/>
<rect x="264" y="104.25" width="18" height="8.5" rx="2" fill="#202020"/>
<rect x="283" y="94.75" width="18" height="18" rx="2" fill="#202020"/>
<rect x="64" y="45.75" width="172" height="2" rx="1" fill="#FF0040"/>
<rect x="68.5" y="64.75" width="172" height="2" rx="1" fill="#FF0040"/>
<rect x="78" y="83.75" width="172" height="2" rx="1" fill="#FF0040"/>
<path d="M123.963 138.75V132.91H125.771C126.117 132.91 126.421 132.982 126.683 133.126C126.944 133.265 127.147 133.459 127.291 133.71C127.435 133.961 127.507 134.254 127.507 134.59C127.507 134.985 127.403 135.323 127.195 135.606C126.992 135.889 126.715 136.083 126.363 136.19L127.587 138.75H126.739L125.619 136.27H124.683V138.75H123.963ZM124.683 135.622H125.771C126.069 135.622 126.309 135.529 126.491 135.342C126.672 135.15 126.763 134.899 126.763 134.59C126.763 134.275 126.672 134.025 126.491 133.838C126.309 133.651 126.069 133.558 125.771 133.558H124.683V135.622ZM130.423 138.814C130.071 138.814 129.767 138.747 129.511 138.614C129.255 138.481 129.055 138.289 128.911 138.038C128.773 137.782 128.703 137.481 128.703 137.134V135.966C128.703 135.614 128.773 135.313 128.911 135.062C129.055 134.811 129.255 134.619 129.511 134.486C129.767 134.353 130.071 134.286 130.423 134.286C130.775 134.286 131.079 134.353 131.335 134.486C131.591 134.619 131.789 134.811 131.927 135.062C132.071 135.313 132.143 135.611 132.143 135.958V137.134C132.143 137.481 132.071 137.782 131.927 138.038C131.789 138.289 131.591 138.481 131.335 138.614C131.079 138.747 130.775 138.814 130.423 138.814ZM130.423 138.174C130.738 138.174 130.983 138.086 131.159 137.91C131.335 137.734 131.423 137.475 131.423 137.134V135.966C131.423 135.625 131.335 135.366 131.159 135.19C130.983 135.014 130.738 134.926 130.423 134.926C130.114 134.926 129.869 135.014 129.687 135.19C129.511 135.366 129.423 135.625 129.423 135.966V137.134C129.423 137.475 129.511 137.734 129.687 137.91C129.869 138.086 130.114 138.174 130.423 138.174ZM133.804 138.75L133.1 134.35H133.74L134.18 137.47C134.196 137.587 134.212 137.715 134.228 137.854C134.25 137.987 134.266 138.099 134.276 138.19C134.287 138.099 134.303 137.987 134.324 137.854C134.351 137.715 134.372 137.587 134.388 137.47L134.876 134.35H135.564L136.052 137.47C136.068 137.587 136.087 137.715 136.108 137.854C136.135 137.987 136.154 138.099 136.164 138.19C136.175 138.099 136.191 137.987 136.212 137.854C136.239 137.715 136.26 137.587 136.276 137.47L136.732 134.35H137.34L136.604 138.75H135.812L135.34 135.71C135.319 135.561 135.295 135.411 135.268 135.262C135.242 135.113 135.223 134.995 135.212 134.91C135.202 134.995 135.186 135.113 135.164 135.262C135.143 135.411 135.119 135.561 135.092 135.71L134.596 138.75H133.804ZM138.737 136.43V135.79H141.297V136.43H138.737ZM145.07 138.83C144.707 138.83 144.417 138.734 144.198 138.542C143.979 138.345 143.87 138.078 143.87 137.742L144.014 137.91H143.87V138.75H143.15V132.91H143.87V134.19L143.854 135.19H144.014L143.87 135.358C143.87 135.027 143.979 134.763 144.198 134.566C144.422 134.369 144.713 134.27 145.07 134.27C145.513 134.27 145.867 134.417 146.134 134.71C146.401 135.003 146.534 135.403 146.534 135.91V137.198C146.534 137.699 146.401 138.097 146.134 138.39C145.867 138.683 145.513 138.83 145.07 138.83ZM144.83 138.206C145.134 138.206 145.374 138.115 145.55 137.934C145.726 137.753 145.814 137.491 145.814 137.15V135.95C145.814 135.609 145.726 135.347 145.55 135.166C145.374 134.985 145.134 134.894 144.83 134.894C144.537 134.894 144.302 134.987 144.126 135.174C143.955 135.361 143.87 135.619 143.87 135.95V137.15C143.87 137.481 143.955 137.739 144.126 137.926C144.302 138.113 144.537 138.206 144.83 138.206ZM149.227 138.83C148.763 138.83 148.398 138.713 148.131 138.478C147.864 138.238 147.731 137.915 147.731 137.51C147.731 137.099 147.864 136.777 148.131 136.542C148.398 136.307 148.758 136.19 149.211 136.19H150.571V135.75C150.571 135.478 150.488 135.27 150.323 135.126C150.163 134.977 149.934 134.902 149.635 134.902C149.374 134.902 149.155 134.958 148.979 135.07C148.803 135.177 148.702 135.323 148.675 135.51H147.955C148.003 135.131 148.182 134.83 148.491 134.606C148.8 134.382 149.187 134.27 149.651 134.27C150.158 134.27 150.558 134.401 150.851 134.662C151.144 134.923 151.291 135.278 151.291 135.726V138.75H150.587V137.91H150.467L150.587 137.79C150.587 138.11 150.462 138.363 150.211 138.55C149.966 138.737 149.638 138.83 149.227 138.83ZM149.403 138.262C149.744 138.262 150.024 138.177 150.243 138.006C150.462 137.835 150.571 137.617 150.571 137.35V136.726H149.227C148.987 136.726 148.798 136.793 148.659 136.926C148.52 137.059 148.451 137.241 148.451 137.47C148.451 137.715 148.534 137.91 148.699 138.054C148.87 138.193 149.104 138.262 149.403 138.262ZM154.272 138.814C153.973 138.814 153.712 138.769 153.488 138.678C153.269 138.582 153.093 138.449 152.96 138.278C152.832 138.107 152.754 137.905 152.728 137.67H153.448C153.48 137.825 153.565 137.947 153.704 138.038C153.848 138.129 154.037 138.174 154.272 138.174H154.608C154.89 138.174 155.101 138.118 155.24 138.006C155.378 137.889 155.448 137.734 155.448 137.542C155.448 137.355 155.384 137.209 155.256 137.102C155.133 136.99 154.949 136.915 154.704 136.878L154.112 136.782C153.68 136.707 153.357 136.574 153.144 136.382C152.936 136.185 152.832 135.899 152.832 135.526C152.832 135.131 152.957 134.827 153.208 134.614C153.458 134.395 153.834 134.286 154.336 134.286H154.64C155.061 134.286 155.4 134.385 155.656 134.582C155.912 134.779 156.066 135.046 156.12 135.382H155.4C155.368 135.243 155.288 135.134 155.16 135.054C155.032 134.969 154.858 134.926 154.64 134.926H154.336C154.064 134.926 153.864 134.977 153.736 135.078C153.613 135.179 153.552 135.331 153.552 135.534C153.552 135.715 153.605 135.849 153.712 135.934C153.818 136.019 153.986 136.081 154.216 136.118L154.808 136.214C155.282 136.289 155.626 136.427 155.84 136.63C156.058 136.833 156.168 137.126 156.168 137.51C156.168 137.915 156.037 138.235 155.776 138.47C155.52 138.699 155.13 138.814 154.608 138.814H154.272ZM159.205 138.83C158.858 138.83 158.554 138.761 158.293 138.622C158.037 138.483 157.837 138.289 157.693 138.038C157.554 137.782 157.485 137.486 157.485 137.15V135.95C157.485 135.609 157.554 135.313 157.693 135.062C157.837 134.811 158.037 134.617 158.293 134.478C158.554 134.339 158.858 134.27 159.205 134.27C159.551 134.27 159.853 134.339 160.109 134.478C160.37 134.617 160.57 134.811 160.709 135.062C160.853 135.313 160.925 135.609 160.925 135.95V136.726H158.189V137.15C158.189 137.497 158.277 137.763 158.453 137.95C158.629 138.131 158.879 138.222 159.205 138.222C159.482 138.222 159.706 138.174 159.877 138.078C160.047 137.977 160.151 137.827 160.189 137.63H160.909C160.861 137.998 160.679 138.291 160.365 138.51C160.055 138.723 159.669 138.83 159.205 138.83ZM160.221 136.246V135.95C160.221 135.603 160.133 135.337 159.957 135.15C159.786 134.963 159.535 134.87 159.205 134.87C158.879 134.87 158.629 134.963 158.453 135.15C158.277 135.337 158.189 135.603 158.189 135.95V136.182H160.277L160.221 136.246ZM163.746 138.83C163.308 138.83 162.954 138.683 162.682 138.39C162.415 138.097 162.282 137.699 162.282 137.198V135.91C162.282 135.403 162.415 135.003 162.682 134.71C162.948 134.417 163.303 134.27 163.746 134.27C164.108 134.27 164.399 134.369 164.618 134.566C164.836 134.763 164.946 135.027 164.946 135.358L164.802 135.19H164.962L164.946 134.19V132.91H165.666V138.75H164.946V137.91H164.802L164.946 137.742C164.946 138.078 164.836 138.345 164.618 138.542C164.399 138.734 164.108 138.83 163.746 138.83ZM163.986 138.206C164.284 138.206 164.519 138.113 164.69 137.926C164.86 137.739 164.946 137.481 164.946 137.15V135.95C164.946 135.619 164.86 135.361 164.69 135.174C164.519 134.987 164.284 134.894 163.986 134.894C163.682 134.894 163.442 134.985 163.266 135.166C163.09 135.347 163.002 135.609 163.002 135.95V137.15C163.002 137.491 163.09 137.753 163.266 137.934C163.442 138.115 163.682 138.206 163.986 138.206ZM173.459 138.814C173.161 138.814 172.899 138.769 172.675 138.678C172.457 138.582 172.281 138.449 172.147 138.278C172.019 138.107 171.942 137.905 171.915 137.67H172.635C172.667 137.825 172.753 137.947 172.891 138.038C173.035 138.129 173.225 138.174 173.459 138.174H173.795C174.078 138.174 174.289 138.118 174.427 138.006C174.566 137.889 174.635 137.734 174.635 137.542C174.635 137.355 174.571 137.209 174.443 137.102C174.321 136.99 174.137 136.915 173.891 136.878L173.299 136.782C172.867 136.707 172.545 136.574 172.331 136.382C172.123 136.185 172.019 135.899 172.019 135.526C172.019 135.131 172.145 134.827 172.395 134.614C172.646 134.395 173.022 134.286 173.523 134.286H173.827C174.249 134.286 174.587 134.385 174.843 134.582C175.099 134.779 175.254 135.046 175.307 135.382H174.587C174.555 135.243 174.475 135.134 174.347 135.054C174.219 134.969 174.046 134.926 173.827 134.926H173.523C173.251 134.926 173.051 134.977 172.923 135.078C172.801 135.179 172.739 135.331 172.739 135.534C172.739 135.715 172.793 135.849 172.899 135.934C173.006 136.019 173.174 136.081 173.403 136.118L173.995 136.214C174.47 136.289 174.814 136.427 175.027 136.63C175.246 136.833 175.355 137.126 175.355 137.51C175.355 137.915 175.225 138.235 174.963 138.47C174.707 138.699 174.318 138.814 173.795 138.814H173.459ZM178.872 138.75C178.494 138.75 178.198 138.649 177.984 138.446C177.776 138.243 177.672 137.958 177.672 137.59V135.006H176.432V134.35H177.672V133.11H178.392V134.35H180.152V135.006H178.392V137.59C178.392 137.926 178.552 138.094 178.872 138.094H180.072V138.75H178.872ZM182.805 138.83C182.341 138.83 181.976 138.713 181.709 138.478C181.442 138.238 181.309 137.915 181.309 137.51C181.309 137.099 181.442 136.777 181.709 136.542C181.976 136.307 182.336 136.19 182.789 136.19H184.149V135.75C184.149 135.478 184.066 135.27 183.901 135.126C183.741 134.977 183.512 134.902 183.213 134.902C182.952 134.902 182.733 134.958 182.557 135.07C182.381 135.177 182.28 135.323 182.253 135.51H181.533C181.581 135.131 181.76 134.83 182.069 134.606C182.378 134.382 182.765 134.27 183.229 134.27C183.736 134.27 184.136 134.401 184.429 134.662C184.722 134.923 184.869 135.278 184.869 135.726V138.75H184.165V137.91H184.045L184.165 137.79C184.165 138.11 184.04 138.363 183.789 138.55C183.544 138.737 183.216 138.83 182.805 138.83ZM182.981 138.262C183.322 138.262 183.602 138.177 183.821 138.006C184.04 137.835 184.149 137.617 184.149 137.35V136.726H182.805C182.565 136.726 182.376 136.793 182.237 136.926C182.098 137.059 182.029 137.241 182.029 137.47C182.029 137.715 182.112 137.91 182.277 138.054C182.448 138.193 182.682 138.262 182.981 138.262ZM186.874 140.19V139.534H188.274C188.498 139.534 188.661 139.483 188.762 139.382C188.869 139.281 188.922 139.123 188.922 138.91V138.35L188.938 137.55H188.794L188.93 137.43C188.93 137.75 188.823 138.003 188.61 138.19C188.397 138.377 188.111 138.47 187.754 138.47C187.301 138.47 186.943 138.323 186.682 138.03C186.421 137.731 186.29 137.331 186.29 136.83V135.902C186.29 135.401 186.421 135.003 186.682 134.71C186.943 134.417 187.301 134.27 187.754 134.27C188.111 134.27 188.397 134.363 188.61 134.55C188.823 134.737 188.93 134.99 188.93 135.31L188.794 135.19H188.93V134.35H189.642V138.91C189.642 139.305 189.519 139.617 189.274 139.846C189.034 140.075 188.698 140.19 188.266 140.19H186.874ZM187.97 137.846C188.269 137.846 188.503 137.753 188.674 137.566C188.845 137.379 188.93 137.121 188.93 136.79V135.95C188.93 135.619 188.845 135.361 188.674 135.174C188.503 134.987 188.269 134.894 187.97 134.894C187.666 134.894 187.429 134.985 187.258 135.166C187.093 135.347 187.01 135.609 187.01 135.95V136.79C187.01 137.131 187.093 137.393 187.258 137.574C187.429 137.755 187.666 137.846 187.97 137.846ZM191.671 140.19V139.534H193.071C193.295 139.534 193.457 139.483 193.559 139.382C193.665 139.281 193.719 139.123 193.719 138.91V138.35L193.735 137.55H193.591L193.727 137.43C193.727 137.75 193.62 138.003 193.407 138.19C193.193 138.377 192.908 138.47 192.551 138.47C192.097 138.47 191.74 138.323 191.479 138.03C191.217 137.731 191.087 137.331 191.087 136.83V135.902C191.087 135.401 191.217 135.003 191.479 134.71C191.74 134.417 192.097 134.27 192.551 134.27C192.908 134.27 193.193 134.363 193.407 134.55C193.62 134.737 193.727 134.99 193.727 135.31L193.591 135.19H193.727V134.35H194.439V138.91C194.439 139.305 194.316 139.617 194.071 139.846C193.831 140.075 193.495 140.19 193.063 140.19H191.671ZM192.767 137.846C193.065 137.846 193.3 137.753 193.471 137.566C193.641 137.379 193.727 137.121 193.727 136.79V135.95C193.727 135.619 193.641 135.361 193.471 135.174C193.3 134.987 193.065 134.894 192.767 134.894C192.463 134.894 192.225 134.985 192.055 135.166C191.889 135.347 191.807 135.609 191.807 135.95V136.79C191.807 137.131 191.889 137.393 192.055 137.574C192.225 137.755 192.463 137.846 192.767 137.846ZM197.58 138.83C197.233 138.83 196.929 138.761 196.668 138.622C196.412 138.483 196.212 138.289 196.068 138.038C195.929 137.782 195.86 137.486 195.86 137.15V135.95C195.86 135.609 195.929 135.313 196.068 135.062C196.212 134.811 196.412 134.617 196.668 134.478C196.929 134.339 197.233 134.27 197.58 134.27C197.926 134.27 198.228 134.339 198.484 134.478C198.745 134.617 198.945 134.811 199.084 135.062C199.228 135.313 199.3 135.609 199.3 135.95V136.726H196.564V137.15C196.564 137.497 196.652 137.763 196.828 137.95C197.004 138.131 197.254 138.222 197.58 138.222C197.857 138.222 198.081 138.174 198.252 138.078C198.422 137.977 198.526 137.827 198.564 137.63H199.284C199.236 137.998 199.054 138.291 198.74 138.51C198.43 138.723 198.044 138.83 197.58 138.83ZM198.596 136.246V135.95C198.596 135.603 198.508 135.337 198.332 135.15C198.161 134.963 197.91 134.87 197.58 134.87C197.254 134.87 197.004 134.963 196.828 135.15C196.652 135.337 196.564 135.603 196.564 135.95V136.182H198.652L198.596 136.246ZM200.865 138.75V134.35H201.569V135.19H201.737L201.505 135.71C201.505 135.235 201.606 134.878 201.809 134.638C202.017 134.393 202.323 134.27 202.729 134.27C203.193 134.27 203.561 134.417 203.833 134.71C204.11 134.998 204.249 135.39 204.249 135.886V136.15H203.529V135.95C203.529 135.603 203.443 135.339 203.273 135.158C203.107 134.971 202.87 134.878 202.561 134.878C202.257 134.878 202.017 134.971 201.841 135.158C201.67 135.345 201.585 135.609 201.585 135.95V138.75H200.865Z" fill="white"/>
</svg>
