<svg width="220" height="115" viewBox="0 0 220 115" fill="none" xmlns="http://www.w3.org/2000/svg">
<rect width="220" height="115" rx="8" fill="black"/>
<path d="M88 33L90 36L94 30" stroke="#00C480" stroke-linecap="round" stroke-linejoin="round"/>
<rect x="85" y="48" width="12" height="8" rx="1" fill="#222222"/>
<rect x="87" y="49" width="1" height="6" rx="0.5" fill="#888888"/>
<rect width="2" height="2" transform="translate(83 51)" fill="#666666"/>
<rect width="2" height="2" transform="translate(97 51)" fill="#666666"/>
<path d="M102 45H81C80.4477 45 80 45.4477 80 46V58C80 58.5523 80.4477 59 81 59H102" stroke="white" stroke-linecap="round" stroke-linejoin="round"/>
<path d="M126 30L132 36M132 30L126 36" stroke="#C40040" stroke-linecap="round" stroke-linejoin="round"/>
<rect x="123" y="48" width="12" height="8" rx="1" fill="#222222"/>
<rect x="132" y="49" width="1" height="6" rx="0.5" fill="#888888"/>
<rect width="2" height="2" transform="translate(121 51)" fill="#666666"/>
<rect width="2" height="2" transform="translate(135 51)" fill="#666666"/>
<path d="M140 45H119C118.448 45 118 45.4477 118 46V58C118 58.5523 118.448 59 119 59H140" stroke="white" stroke-linecap="round" stroke-linejoin="round"/>
<path d="M65.1737 83V77.16H65.8937V79.656H67.7657V77.16H68.4857V83H67.7657V80.312H65.8937V83H65.1737ZM71.6266 83.064C71.2746 83.064 70.9706 82.9973 70.7146 82.864C70.4586 82.7307 70.2586 82.5387 70.1146 82.288C69.9759 82.032 69.9066 81.7307 69.9066 81.384V80.216C69.9066 79.864 69.9759 79.5627 70.1146 79.312C70.2586 79.0613 70.4586 78.8693 70.7146 78.736C70.9706 78.6027 71.2746 78.536 71.6266 78.536C71.9786 78.536 72.2826 78.6027 72.5386 78.736C72.7946 78.8693 72.9919 79.0613 73.1306 79.312C73.2746 79.5627 73.3466 79.8613 73.3466 80.208V81.384C73.3466 81.7307 73.2746 82.032 73.1306 82.288C72.9919 82.5387 72.7946 82.7307 72.5386 82.864C72.2826 82.9973 71.9786 83.064 71.6266 83.064ZM71.6266 82.424C71.9412 82.424 72.1866 82.336 72.3626 82.16C72.5386 81.984 72.6266 81.7253 72.6266 81.384V80.216C72.6266 79.8747 72.5386 79.616 72.3626 79.44C72.1866 79.264 71.9412 79.176 71.6266 79.176C71.3172 79.176 71.0719 79.264 70.8906 79.44C70.7146 79.616 70.6266 79.8747 70.6266 80.216V81.384C70.6266 81.7253 70.7146 81.984 70.8906 82.16C71.0719 82.336 71.3172 82.424 71.6266 82.424ZM75.0074 83L74.3034 78.6H74.9434L75.3834 81.72C75.3994 81.8373 75.4154 81.9653 75.4314 82.104C75.4528 82.2373 75.4688 82.3493 75.4794 82.44C75.4901 82.3493 75.5061 82.2373 75.5274 82.104C75.5541 81.9653 75.5754 81.8373 75.5914 81.72L76.0794 78.6H76.7674L77.2554 81.72C77.2714 81.8373 77.2901 81.9653 77.3114 82.104C77.3381 82.2373 77.3568 82.3493 77.3674 82.44C77.3781 82.3493 77.3941 82.2373 77.4154 82.104C77.4421 81.9653 77.4634 81.8373 77.4794 81.72L77.9354 78.6H78.5434L77.8074 83H77.0154L76.5434 79.96C76.5221 79.8107 76.4981 79.6613 76.4714 79.512C76.4448 79.3627 76.4261 79.2453 76.4154 79.16C76.4048 79.2453 76.3888 79.3627 76.3674 79.512C76.3461 79.6613 76.3221 79.8107 76.2954 79.96L75.7994 83H75.0074ZM86.4972 83C86.1185 83 85.8225 82.8987 85.6092 82.696C85.4012 82.4933 85.2972 82.208 85.2972 81.84V79.256H84.0572V78.6H85.2972V77.36H86.0172V78.6H87.7772V79.256H86.0172V81.84C86.0172 82.176 86.1772 82.344 86.4972 82.344H87.6972V83H86.4972ZM90.8141 83.064C90.4621 83.064 90.1581 82.9973 89.9021 82.864C89.6461 82.7307 89.4461 82.5387 89.3021 82.288C89.1634 82.032 89.0941 81.7307 89.0941 81.384V80.216C89.0941 79.864 89.1634 79.5627 89.3021 79.312C89.4461 79.0613 89.6461 78.8693 89.9021 78.736C90.1581 78.6027 90.4621 78.536 90.8141 78.536C91.1661 78.536 91.4701 78.6027 91.7261 78.736C91.9821 78.8693 92.1794 79.0613 92.3181 79.312C92.4621 79.5627 92.5341 79.8613 92.5341 80.208V81.384C92.5341 81.7307 92.4621 82.032 92.3181 82.288C92.1794 82.5387 91.9821 82.7307 91.7261 82.864C91.4701 82.9973 91.1661 83.064 90.8141 83.064ZM90.8141 82.424C91.1287 82.424 91.3741 82.336 91.5501 82.16C91.7261 81.984 91.8141 81.7253 91.8141 81.384V80.216C91.8141 79.8747 91.7261 79.616 91.5501 79.44C91.3741 79.264 91.1287 79.176 90.8141 79.176C90.5047 79.176 90.2594 79.264 90.0781 79.44C89.9021 79.616 89.8141 79.8747 89.8141 80.216V81.384C89.8141 81.7253 89.9021 81.984 90.0781 82.16C90.2594 82.336 90.5047 82.424 90.8141 82.424ZM100.272 83.064C99.9731 83.064 99.7118 83.0187 99.4878 82.928C99.2691 82.832 99.0931 82.6987 98.9598 82.528C98.8318 82.3573 98.7545 82.1547 98.7278 81.92H99.4478C99.4798 82.0747 99.5651 82.1973 99.7038 82.288C99.8478 82.3787 100.037 82.424 100.272 82.424H100.608C100.89 82.424 101.101 82.368 101.24 82.256C101.378 82.1387 101.448 81.984 101.448 81.792C101.448 81.6053 101.384 81.4587 101.256 81.352C101.133 81.24 100.949 81.1653 100.704 81.128L100.112 81.032C99.6798 80.9573 99.3571 80.824 99.1438 80.632C98.9358 80.4347 98.8318 80.1493 98.8318 79.776C98.8318 79.3813 98.9571 79.0773 99.2078 78.864C99.4585 78.6453 99.8345 78.536 100.336 78.536H100.64C101.061 78.536 101.4 78.6347 101.656 78.832C101.912 79.0293 102.066 79.296 102.12 79.632H101.4C101.368 79.4933 101.288 79.384 101.16 79.304C101.032 79.2187 100.858 79.176 100.64 79.176H100.336C100.064 79.176 99.8638 79.2267 99.7358 79.328C99.6131 79.4293 99.5518 79.5813 99.5518 79.784C99.5518 79.9653 99.6051 80.0987 99.7118 80.184C99.8185 80.2693 99.9865 80.3307 100.216 80.368L100.808 80.464C101.282 80.5387 101.626 80.6773 101.84 80.88C102.058 81.0827 102.168 81.376 102.168 81.76C102.168 82.1653 102.037 82.4853 101.776 82.72C101.52 82.9493 101.13 83.064 100.608 83.064H100.272ZM105.205 83.064C104.853 83.064 104.549 82.9973 104.293 82.864C104.037 82.7307 103.837 82.5387 103.693 82.288C103.554 82.032 103.485 81.7307 103.485 81.384V80.216C103.485 79.864 103.554 79.5627 103.693 79.312C103.837 79.0613 104.037 78.8693 104.293 78.736C104.549 78.6027 104.853 78.536 105.205 78.536C105.557 78.536 105.861 78.6027 106.117 78.736C106.373 78.8693 106.57 79.0613 106.709 79.312C106.853 79.5627 106.925 79.8613 106.925 80.208V81.384C106.925 81.7307 106.853 82.032 106.709 82.288C106.57 82.5387 106.373 82.7307 106.117 82.864C105.861 82.9973 105.557 83.064 105.205 83.064ZM105.205 82.424C105.519 82.424 105.765 82.336 105.941 82.16C106.117 81.984 106.205 81.7253 106.205 81.384V80.216C106.205 79.8747 106.117 79.616 105.941 79.44C105.765 79.264 105.519 79.176 105.205 79.176C104.895 79.176 104.65 79.264 104.469 79.44C104.293 79.616 104.205 79.8747 104.205 80.216V81.384C104.205 81.7253 104.293 81.984 104.469 82.16C104.65 82.336 104.895 82.424 105.205 82.424ZM110.602 83C110.346 83 110.122 82.9493 109.93 82.848C109.738 82.7467 109.588 82.6027 109.482 82.416C109.375 82.2293 109.322 82.0107 109.322 81.76V77.816H107.842V77.16H110.042V81.76C110.042 81.9413 110.092 82.0853 110.194 82.192C110.295 82.2933 110.431 82.344 110.602 82.344H112.002V83H110.602ZM114.542 83.08C114.105 83.08 113.75 82.9333 113.478 82.64C113.212 82.3467 113.078 81.9493 113.078 81.448V80.16C113.078 79.6533 113.212 79.2533 113.478 78.96C113.745 78.6667 114.1 78.52 114.542 78.52C114.905 78.52 115.196 78.6187 115.414 78.816C115.633 79.0133 115.742 79.2773 115.742 79.608L115.598 79.44H115.758L115.742 78.44V77.16H116.462V83H115.742V82.16H115.598L115.742 81.992C115.742 82.328 115.633 82.5947 115.414 82.792C115.196 82.984 114.905 83.08 114.542 83.08ZM114.782 82.456C115.081 82.456 115.316 82.3627 115.486 82.176C115.657 81.9893 115.742 81.7307 115.742 81.4V80.2C115.742 79.8693 115.657 79.6107 115.486 79.424C115.316 79.2373 115.081 79.144 114.782 79.144C114.478 79.144 114.238 79.2347 114.062 79.416C113.886 79.5973 113.798 79.8587 113.798 80.2V81.4C113.798 81.7413 113.886 82.0027 114.062 82.184C114.238 82.3653 114.478 82.456 114.782 82.456ZM119.595 83.08C119.249 83.08 118.945 83.0107 118.683 82.872C118.427 82.7333 118.227 82.5387 118.083 82.288C117.945 82.032 117.875 81.736 117.875 81.4V80.2C117.875 79.8587 117.945 79.5627 118.083 79.312C118.227 79.0613 118.427 78.8667 118.683 78.728C118.945 78.5893 119.249 78.52 119.595 78.52C119.942 78.52 120.243 78.5893 120.499 78.728C120.761 78.8667 120.961 79.0613 121.099 79.312C121.243 79.5627 121.315 79.8587 121.315 80.2V80.976H118.579V81.4C118.579 81.7467 118.667 82.0133 118.843 82.2C119.019 82.3813 119.27 82.472 119.595 82.472C119.873 82.472 120.097 82.424 120.267 82.328C120.438 82.2267 120.542 82.0773 120.579 81.88H121.299C121.251 82.248 121.07 82.5413 120.755 82.76C120.446 82.9733 120.059 83.08 119.595 83.08ZM120.611 80.496V80.2C120.611 79.8533 120.523 79.5867 120.347 79.4C120.177 79.2133 119.926 79.12 119.595 79.12C119.27 79.12 119.019 79.2133 118.843 79.4C118.667 79.5867 118.579 79.8533 118.579 80.2V80.432H120.667L120.611 80.496ZM122.88 83V78.6H123.584V79.44H123.752L123.52 79.96C123.52 79.4853 123.622 79.128 123.824 78.888C124.032 78.6427 124.339 78.52 124.744 78.52C125.208 78.52 125.576 78.6667 125.848 78.96C126.126 79.248 126.264 79.64 126.264 80.136V80.4H125.544V80.2C125.544 79.8533 125.459 79.5893 125.288 79.408C125.123 79.2213 124.886 79.128 124.576 79.128C124.272 79.128 124.032 79.2213 123.856 79.408C123.686 79.5947 123.6 79.8587 123.6 80.2V83H122.88ZM133.73 83.08C133.293 83.08 132.938 82.9333 132.666 82.64C132.399 82.3467 132.266 81.9493 132.266 81.448V80.16C132.266 79.6533 132.399 79.2533 132.666 78.96C132.933 78.6667 133.287 78.52 133.73 78.52C134.093 78.52 134.383 78.6187 134.602 78.816C134.821 79.0133 134.93 79.2773 134.93 79.608L134.786 79.44H134.946L134.93 78.44V77.16H135.65V83H134.93V82.16H134.786L134.93 81.992C134.93 82.328 134.821 82.5947 134.602 82.792C134.383 82.984 134.093 83.08 133.73 83.08ZM133.97 82.456C134.269 82.456 134.503 82.3627 134.674 82.176C134.845 81.9893 134.93 81.7307 134.93 81.4V80.2C134.93 79.8693 134.845 79.6107 134.674 79.424C134.503 79.2373 134.269 79.144 133.97 79.144C133.666 79.144 133.426 79.2347 133.25 79.416C133.074 79.5973 132.986 79.8587 132.986 80.2V81.4C132.986 81.7413 133.074 82.0027 133.25 82.184C133.426 82.3653 133.666 82.456 133.97 82.456ZM137.063 83V82.344H138.623V79.256H137.263V78.6H139.343V82.344H140.823V83H137.063ZM138.903 77.808C138.727 77.808 138.588 77.7627 138.487 77.672C138.385 77.5813 138.335 77.4587 138.335 77.304C138.335 77.144 138.385 77.0187 138.487 76.928C138.588 76.832 138.727 76.784 138.903 76.784C139.079 76.784 139.217 76.832 139.319 76.928C139.42 77.0187 139.471 77.144 139.471 77.304C139.471 77.4587 139.42 77.5813 139.319 77.672C139.217 77.7627 139.079 77.808 138.903 77.808ZM143.58 83.064C143.228 83.064 142.924 82.9973 142.668 82.864C142.412 82.7307 142.212 82.5387 142.068 82.288C141.929 82.032 141.86 81.7307 141.86 81.384V80.216C141.86 79.864 141.929 79.5627 142.068 79.312C142.212 79.0613 142.412 78.8693 142.668 78.736C142.924 78.6027 143.228 78.536 143.58 78.536C143.932 78.536 144.236 78.6027 144.492 78.736C144.748 78.8693 144.945 79.0613 145.084 79.312C145.228 79.5627 145.3 79.8613 145.3 80.208V81.384C145.3 81.7307 145.228 82.032 145.084 82.288C144.945 82.5387 144.748 82.7307 144.492 82.864C144.236 82.9973 143.932 83.064 143.58 83.064ZM143.58 82.424C143.894 82.424 144.14 82.336 144.316 82.16C144.492 81.984 144.58 81.7253 144.58 81.384V80.216C144.58 79.8747 144.492 79.616 144.316 79.44C144.14 79.264 143.894 79.176 143.58 79.176C143.27 79.176 143.025 79.264 142.844 79.44C142.668 79.616 142.58 79.8747 142.58 80.216V81.384C142.58 81.7253 142.668 81.984 142.844 82.16C143.025 82.336 143.27 82.424 143.58 82.424ZM148.121 83.08C147.683 83.08 147.329 82.9333 147.057 82.64C146.79 82.3467 146.657 81.9493 146.657 81.448V80.16C146.657 79.6533 146.79 79.2533 147.057 78.96C147.323 78.6667 147.678 78.52 148.121 78.52C148.483 78.52 148.774 78.6187 148.993 78.816C149.211 79.0133 149.321 79.2773 149.321 79.608L149.177 79.44H149.337L149.321 78.44V77.16H150.041V83H149.321V82.16H149.177L149.321 81.992C149.321 82.328 149.211 82.5947 148.993 82.792C148.774 82.984 148.483 83.08 148.121 83.08ZM148.361 82.456C148.659 82.456 148.894 82.3627 149.065 82.176C149.235 81.9893 149.321 81.7307 149.321 81.4V80.2C149.321 79.8693 149.235 79.6107 149.065 79.424C148.894 79.2373 148.659 79.144 148.361 79.144C148.057 79.144 147.817 79.2347 147.641 79.416C147.465 79.5973 147.377 79.8587 147.377 80.2V81.4C147.377 81.7413 147.465 82.0027 147.641 82.184C147.817 82.3653 148.057 82.456 148.361 82.456ZM153.173 83.08C152.827 83.08 152.523 83.0107 152.261 82.872C152.005 82.7333 151.805 82.5387 151.661 82.288C151.523 82.032 151.453 81.736 151.453 81.4V80.2C151.453 79.8587 151.523 79.5627 151.661 79.312C151.805 79.0613 152.005 78.8667 152.261 78.728C152.523 78.5893 152.827 78.52 153.173 78.52C153.52 78.52 153.821 78.5893 154.077 78.728C154.339 78.8667 154.539 79.0613 154.677 79.312C154.821 79.5627 154.893 79.8587 154.893 80.2V80.976H152.157V81.4C152.157 81.7467 152.245 82.0133 152.421 82.2C152.597 82.3813 152.848 82.472 153.173 82.472C153.451 82.472 153.675 82.424 153.845 82.328C154.016 82.2267 154.12 82.0773 154.157 81.88H154.877C154.829 82.248 154.648 82.5413 154.333 82.76C154.024 82.9733 153.637 83.08 153.173 83.08ZM154.189 80.496V80.2C154.189 79.8533 154.101 79.5867 153.925 79.4C153.755 79.2133 153.504 79.12 153.173 79.12C152.848 79.12 152.597 79.2133 152.421 79.4C152.245 79.5867 152.157 79.8533 152.157 80.2V80.432H154.245L154.189 80.496Z" fill="white"/>
</svg>
