<svg width="235" height="153" viewBox="0 0 235 153" fill="none" xmlns="http://www.w3.org/2000/svg">
<rect width="235" height="153" rx="8" fill="black"/>
<path d="M74.5 28L76.5 31L80.5 25" stroke="#00C480" stroke-linecap="round" stroke-linejoin="round"/>
<rect x="63.5" y="39.5" width="28" height="28" rx="4.5" stroke="#00C480"/>
<path d="M70 51C70 50.4477 70.4477 50 71 50H73C73.5523 50 74 50.4477 74 51V52H70V51Z" fill="#444444"/>
<rect x="68.75" y="48.75" width="6.5" height="10.5" rx="2.25" stroke="white" stroke-width="0.5"/>
<path d="M70 53H74V57C74 57.5523 73.5523 58 73 58H71C70.4477 58 70 57.5523 70 57V53Z" fill="#00C480"/>
<path d="M72 45V47M71 46H73" stroke="white" stroke-width="0.5" stroke-linecap="round" stroke-linejoin="round"/>
<path d="M71 62H73" stroke="white" stroke-width="0.5" stroke-linecap="round" stroke-linejoin="round"/>
<path d="M81 51C81 50.4477 81.4477 50 82 50H84C84.5523 50 85 50.4477 85 51V55H81V51Z" fill="#00C480"/>
<rect x="79.75" y="48.75" width="6.5" height="10.5" rx="2.25" stroke="white" stroke-width="0.5"/>
<path d="M81 56H85V57C85 57.5523 84.5523 58 84 58H82C81.4477 58 81 57.5523 81 57V56Z" fill="#444444"/>
<path d="M83 45V47M82 46H84" stroke="white" stroke-width="0.5" stroke-linecap="round" stroke-linejoin="round"/>
<path d="M82 62H84" stroke="white" stroke-width="0.5" stroke-linecap="round" stroke-linejoin="round"/>
<rect x="63.5" y="74.5" width="28" height="28" rx="4.5" stroke="#00C480"/>
<path d="M70 86C70 85.4477 70.4477 85 71 85H73C73.5523 85 74 85.4477 74 86V90H70V86Z" fill="#00C480"/>
<rect x="68.75" y="83.75" width="6.5" height="10.5" rx="2.25" stroke="white" stroke-width="0.5"/>
<path d="M70 91H74V92C74 92.5523 73.5523 93 73 93H71C70.4477 93 70 92.5523 70 92V91Z" fill="#444444"/>
<path d="M72 80V82M71 81H73" stroke="white" stroke-width="0.5" stroke-linecap="round" stroke-linejoin="round"/>
<path d="M71 97H73" stroke="white" stroke-width="0.5" stroke-linecap="round" stroke-linejoin="round"/>
<path d="M81 86C81 85.4477 81.4477 85 82 85H84C84.5523 85 85 85.4477 85 86V87H81V86Z" fill="#444444"/>
<rect x="79.75" y="83.75" width="6.5" height="10.5" rx="2.25" stroke="white" stroke-width="0.5"/>
<path d="M81 88H85V92C85 92.5523 84.5523 93 84 93H82C81.4477 93 81 92.5523 81 92V88Z" fill="#00C480"/>
<path d="M83 80V82M82 81H84" stroke="white" stroke-width="0.5" stroke-linecap="round" stroke-linejoin="round"/>
<path d="M82 97H84" stroke="white" stroke-width="0.5" stroke-linecap="round" stroke-linejoin="round"/>
<path d="M136 25L142 31M142 25L136 31" stroke="#C40040" stroke-linecap="round" stroke-linejoin="round"/>
<rect x="107.5" y="39.5" width="28" height="28" rx="4.5" stroke="#C40040"/>
<path d="M114 51C114 50.4477 114.448 50 115 50H117C117.552 50 118 50.4477 118 51V52H114V51Z" fill="#444444"/>
<rect x="112.75" y="48.75" width="6.5" height="10.5" rx="2.25" stroke="white" stroke-width="0.5"/>
<path d="M114 53H118V57C118 57.5523 117.552 58 117 58H115C114.448 58 114 57.5523 114 57V53Z" fill="#C40040"/>
<path d="M116 45V47M115 46H117" stroke="white" stroke-width="0.5" stroke-linecap="round" stroke-linejoin="round"/>
<path d="M115 62H117" stroke="white" stroke-width="0.5" stroke-linecap="round" stroke-linejoin="round"/>
<path d="M125 51C125 50.4477 125.448 50 126 50H128C128.552 50 129 50.4477 129 51V52H125V51Z" fill="#444444"/>
<rect x="123.75" y="48.75" width="6.5" height="10.5" rx="2.25" stroke="white" stroke-width="0.5"/>
<path d="M125 53H129V57C129 57.5523 128.552 58 128 58H126C125.448 58 125 57.5523 125 57V53Z" fill="#C40040"/>
<path d="M127 45V47M126 46H128" stroke="white" stroke-width="0.5" stroke-linecap="round" stroke-linejoin="round"/>
<path d="M126 62H128" stroke="white" stroke-width="0.5" stroke-linecap="round" stroke-linejoin="round"/>
<rect x="142.5" y="39.5" width="28" height="28" rx="4.5" stroke="#C40040"/>
<path d="M149 51C149 50.4477 149.448 50 150 50H152C152.552 50 153 50.4477 153 51V55H149V51Z" fill="#C40040"/>
<rect x="147.75" y="48.75" width="6.5" height="10.5" rx="2.25" stroke="white" stroke-width="0.5"/>
<path d="M149 56H153V57C153 57.5523 152.552 58 152 58H150C149.448 58 149 57.5523 149 57V56Z" fill="#444444"/>
<path d="M151 45V47M150 46H152" stroke="white" stroke-width="0.5" stroke-linecap="round" stroke-linejoin="round"/>
<path d="M150 62H152" stroke="white" stroke-width="0.5" stroke-linecap="round" stroke-linejoin="round"/>
<path d="M160 51C160 50.4477 160.448 50 161 50H163C163.552 50 164 50.4477 164 51V55H160V51Z" fill="#C40040"/>
<rect x="158.75" y="48.75" width="6.5" height="10.5" rx="2.25" stroke="white" stroke-width="0.5"/>
<path d="M160 56H164V57C164 57.5523 163.552 58 163 58H161C160.448 58 160 57.5523 160 57V56Z" fill="#444444"/>
<path d="M162 45V47M161 46H163" stroke="white" stroke-width="0.5" stroke-linecap="round" stroke-linejoin="round"/>
<path d="M161 62H163" stroke="white" stroke-width="0.5" stroke-linecap="round" stroke-linejoin="round"/>
<rect x="107.5" y="74.5" width="28" height="28" rx="4.5" stroke="#C40040"/>
<rect x="112.75" y="83.75" width="6.5" height="10.5" rx="2.25" stroke="white" stroke-width="0.5"/>
<rect x="114" y="85" width="4" height="8" rx="1" fill="#C40040"/>
<path d="M116 80V82M115 81H117" stroke="white" stroke-width="0.5" stroke-linecap="round" stroke-linejoin="round"/>
<path d="M115 97H117" stroke="white" stroke-width="0.5" stroke-linecap="round" stroke-linejoin="round"/>
<path d="M125 88H129V92C129 92.5523 128.552 93 128 93H126C125.448 93 125 92.5523 125 92V88Z" fill="#C40040"/>
<rect x="123.75" y="83.75" width="6.5" height="10.5" rx="2.25" stroke="white" stroke-width="0.5"/>
<path d="M125 86C125 85.4477 125.448 85 126 85H128C128.552 85 129 85.4477 129 86V87H125V86Z" fill="#444444"/>
<path d="M127 80V82M126 81H128" stroke="white" stroke-width="0.5" stroke-linecap="round" stroke-linejoin="round"/>
<path d="M126 97H128" stroke="white" stroke-width="0.5" stroke-linecap="round" stroke-linejoin="round"/>
<rect x="142.5" y="74.5" width="28" height="28" rx="4.5" stroke="#C40040"/>
<path d="M149 86C149 85.4477 149.448 85 150 85H152C152.552 85 153 85.4477 153 86V90H149V86Z" fill="#C40040"/>
<rect x="147.75" y="83.75" width="6.5" height="10.5" rx="2.25" stroke="white" stroke-width="0.5"/>
<path d="M149 91H153V92C153 92.5523 152.552 93 152 93H150C149.448 93 149 92.5523 149 92V91Z" fill="#444444"/>
<path d="M151 80V82M150 81H152" stroke="white" stroke-width="0.5" stroke-linecap="round" stroke-linejoin="round"/>
<path d="M150 97H152" stroke="white" stroke-width="0.5" stroke-linecap="round" stroke-linejoin="round"/>
<path d="M160 86C160 85.4477 160.448 85 161 85H163C163.552 85 164 85.4477 164 86V87H160V86Z" fill="#444444"/>
<rect x="158.75" y="83.75" width="6.5" height="10.5" rx="2.25" stroke="white" stroke-width="0.5"/>
<rect width="4" height="2" transform="translate(160 88)" fill="#444444"/>
<path d="M160 91H164V92C164 92.5523 163.552 93 163 93H161C160.448 93 160 92.5523 160 92V91Z" fill="#444444"/>
<path d="M162 80V82M161 81H163" stroke="white" stroke-width="0.5" stroke-linecap="round" stroke-linejoin="round"/>
<path d="M161 97H163" stroke="white" stroke-width="0.5" stroke-linecap="round" stroke-linejoin="round"/>
<path d="M67.8768 126V120.16H68.5968V122.656H70.4688V120.16H71.1888V126H70.4688V123.312H68.5968V126H67.8768ZM74.3297 126.064C73.9777 126.064 73.6737 125.997 73.4177 125.864C73.1617 125.731 72.9617 125.539 72.8177 125.288C72.679 125.032 72.6097 124.731 72.6097 124.384V123.216C72.6097 122.864 72.679 122.563 72.8177 122.312C72.9617 122.061 73.1617 121.869 73.4177 121.736C73.6737 121.603 73.9777 121.536 74.3297 121.536C74.6817 121.536 74.9857 121.603 75.2417 121.736C75.4977 121.869 75.695 122.061 75.8337 122.312C75.9777 122.563 76.0497 122.861 76.0497 123.208V124.384C76.0497 124.731 75.9777 125.032 75.8337 125.288C75.695 125.539 75.4977 125.731 75.2417 125.864C74.9857 125.997 74.6817 126.064 74.3297 126.064ZM74.3297 125.424C74.6444 125.424 74.8897 125.336 75.0657 125.16C75.2417 124.984 75.3297 124.725 75.3297 124.384V123.216C75.3297 122.875 75.2417 122.616 75.0657 122.44C74.8897 122.264 74.6444 122.176 74.3297 122.176C74.0204 122.176 73.775 122.264 73.5937 122.44C73.4177 122.616 73.3297 122.875 73.3297 123.216V124.384C73.3297 124.725 73.4177 124.984 73.5937 125.16C73.775 125.336 74.0204 125.424 74.3297 125.424ZM77.7106 126L77.0066 121.6H77.6466L78.0866 124.72C78.1026 124.837 78.1186 124.965 78.1346 125.104C78.1559 125.237 78.1719 125.349 78.1826 125.44C78.1932 125.349 78.2092 125.237 78.2306 125.104C78.2572 124.965 78.2786 124.837 78.2946 124.72L78.7826 121.6H79.4706L79.9586 124.72C79.9746 124.837 79.9932 124.965 80.0146 125.104C80.0412 125.237 80.0599 125.349 80.0706 125.44C80.0812 125.349 80.0972 125.237 80.1186 125.104C80.1452 124.965 80.1666 124.837 80.1826 124.72L80.6386 121.6H81.2466L80.5106 126H79.7186L79.2466 122.96C79.2252 122.811 79.2012 122.661 79.1746 122.512C79.1479 122.363 79.1292 122.245 79.1186 122.16C79.1079 122.245 79.0919 122.363 79.0706 122.512C79.0492 122.661 79.0252 122.811 78.9986 122.96L78.5026 126H77.7106ZM89.2003 126C88.8216 126 88.5256 125.899 88.3123 125.696C88.1043 125.493 88.0003 125.208 88.0003 124.84V122.256H86.7603V121.6H88.0003V120.36H88.7203V121.6H90.4803V122.256H88.7203V124.84C88.7203 125.176 88.8803 125.344 89.2003 125.344H90.4003V126H89.2003ZM93.5172 126.064C93.1652 126.064 92.8612 125.997 92.6052 125.864C92.3492 125.731 92.1492 125.539 92.0052 125.288C91.8665 125.032 91.7972 124.731 91.7972 124.384V123.216C91.7972 122.864 91.8665 122.563 92.0052 122.312C92.1492 122.061 92.3492 121.869 92.6052 121.736C92.8612 121.603 93.1652 121.536 93.5172 121.536C93.8692 121.536 94.1732 121.603 94.4292 121.736C94.6852 121.869 94.8825 122.061 95.0212 122.312C95.1652 122.563 95.2372 122.861 95.2372 123.208V124.384C95.2372 124.731 95.1652 125.032 95.0212 125.288C94.8825 125.539 94.6852 125.731 94.4292 125.864C94.1732 125.997 93.8692 126.064 93.5172 126.064ZM93.5172 125.424C93.8319 125.424 94.0772 125.336 94.2532 125.16C94.4292 124.984 94.5172 124.725 94.5172 124.384V123.216C94.5172 122.875 94.4292 122.616 94.2532 122.44C94.0772 122.264 93.8319 122.176 93.5172 122.176C93.2079 122.176 92.9625 122.264 92.7812 122.44C92.6052 122.616 92.5172 122.875 92.5172 123.216V124.384C92.5172 124.725 92.6052 124.984 92.7812 125.16C92.9625 125.336 93.2079 125.424 93.5172 125.424ZM102.975 126.064C102.676 126.064 102.415 126.019 102.191 125.928C101.972 125.832 101.796 125.699 101.663 125.528C101.535 125.357 101.458 125.155 101.431 124.92H102.151C102.183 125.075 102.268 125.197 102.407 125.288C102.551 125.379 102.74 125.424 102.975 125.424H103.311C103.594 125.424 103.804 125.368 103.943 125.256C104.082 125.139 104.151 124.984 104.151 124.792C104.151 124.605 104.087 124.459 103.959 124.352C103.836 124.24 103.652 124.165 103.407 124.128L102.815 124.032C102.383 123.957 102.06 123.824 101.847 123.632C101.639 123.435 101.535 123.149 101.535 122.776C101.535 122.381 101.66 122.077 101.911 121.864C102.162 121.645 102.538 121.536 103.039 121.536H103.343C103.764 121.536 104.103 121.635 104.359 121.832C104.615 122.029 104.77 122.296 104.823 122.632H104.103C104.071 122.493 103.991 122.384 103.863 122.304C103.735 122.219 103.562 122.176 103.343 122.176H103.039C102.767 122.176 102.567 122.227 102.439 122.328C102.316 122.429 102.255 122.581 102.255 122.784C102.255 122.965 102.308 123.099 102.415 123.184C102.522 123.269 102.69 123.331 102.919 123.368L103.511 123.464C103.986 123.539 104.33 123.677 104.543 123.88C104.762 124.083 104.871 124.376 104.871 124.76C104.871 125.165 104.74 125.485 104.479 125.72C104.223 125.949 103.834 126.064 103.311 126.064H102.975ZM107.908 126.064C107.556 126.064 107.252 125.997 106.996 125.864C106.74 125.731 106.54 125.539 106.396 125.288C106.257 125.032 106.188 124.731 106.188 124.384V123.216C106.188 122.864 106.257 122.563 106.396 122.312C106.54 122.061 106.74 121.869 106.996 121.736C107.252 121.603 107.556 121.536 107.908 121.536C108.26 121.536 108.564 121.603 108.82 121.736C109.076 121.869 109.273 122.061 109.412 122.312C109.556 122.563 109.628 122.861 109.628 123.208V124.384C109.628 124.731 109.556 125.032 109.412 125.288C109.273 125.539 109.076 125.731 108.82 125.864C108.564 125.997 108.26 126.064 107.908 126.064ZM107.908 125.424C108.222 125.424 108.468 125.336 108.644 125.16C108.82 124.984 108.908 124.725 108.908 124.384V123.216C108.908 122.875 108.82 122.616 108.644 122.44C108.468 122.264 108.222 122.176 107.908 122.176C107.598 122.176 107.353 122.264 107.172 122.44C106.996 122.616 106.908 122.875 106.908 123.216V124.384C106.908 124.725 106.996 124.984 107.172 125.16C107.353 125.336 107.598 125.424 107.908 125.424ZM113.305 126C113.049 126 112.825 125.949 112.633 125.848C112.441 125.747 112.291 125.603 112.185 125.416C112.078 125.229 112.025 125.011 112.025 124.76V120.816H110.545V120.16H112.745V124.76C112.745 124.941 112.795 125.085 112.897 125.192C112.998 125.293 113.134 125.344 113.305 125.344H114.705V126H113.305ZM117.246 126.08C116.808 126.08 116.454 125.933 116.182 125.64C115.915 125.347 115.782 124.949 115.782 124.448V123.16C115.782 122.653 115.915 122.253 116.182 121.96C116.448 121.667 116.803 121.52 117.246 121.52C117.608 121.52 117.899 121.619 118.118 121.816C118.336 122.013 118.446 122.277 118.446 122.608L118.302 122.44H118.462L118.446 121.44V120.16H119.166V126H118.446V125.16H118.302L118.446 124.992C118.446 125.328 118.336 125.595 118.118 125.792C117.899 125.984 117.608 126.08 117.246 126.08ZM117.486 125.456C117.784 125.456 118.019 125.363 118.19 125.176C118.36 124.989 118.446 124.731 118.446 124.4V123.2C118.446 122.869 118.36 122.611 118.19 122.424C118.019 122.237 117.784 122.144 117.486 122.144C117.182 122.144 116.942 122.235 116.766 122.416C116.59 122.597 116.502 122.859 116.502 123.2V124.4C116.502 124.741 116.59 125.003 116.766 125.184C116.942 125.365 117.182 125.456 117.486 125.456ZM122.298 126.08C121.952 126.08 121.648 126.011 121.386 125.872C121.13 125.733 120.93 125.539 120.786 125.288C120.648 125.032 120.578 124.736 120.578 124.4V123.2C120.578 122.859 120.648 122.563 120.786 122.312C120.93 122.061 121.13 121.867 121.386 121.728C121.648 121.589 121.952 121.52 122.298 121.52C122.645 121.52 122.946 121.589 123.202 121.728C123.464 121.867 123.664 122.061 123.802 122.312C123.946 122.563 124.018 122.859 124.018 123.2V123.976H121.282V124.4C121.282 124.747 121.37 125.013 121.546 125.2C121.722 125.381 121.973 125.472 122.298 125.472C122.576 125.472 122.8 125.424 122.97 125.328C123.141 125.227 123.245 125.077 123.282 124.88H124.002C123.954 125.248 123.773 125.541 123.458 125.76C123.149 125.973 122.762 126.08 122.298 126.08ZM123.314 123.496V123.2C123.314 122.853 123.226 122.587 123.05 122.4C122.88 122.213 122.629 122.12 122.298 122.12C121.973 122.12 121.722 122.213 121.546 122.4C121.37 122.587 121.282 122.853 121.282 123.2V123.432H123.37L123.314 123.496ZM125.583 126V121.6H126.287V122.44H126.455L126.223 122.96C126.223 122.485 126.325 122.128 126.527 121.888C126.735 121.643 127.042 121.52 127.447 121.52C127.911 121.52 128.279 121.667 128.551 121.96C128.829 122.248 128.967 122.64 128.967 123.136V123.4H128.247V123.2C128.247 122.853 128.162 122.589 127.991 122.408C127.826 122.221 127.589 122.128 127.279 122.128C126.975 122.128 126.735 122.221 126.559 122.408C126.389 122.595 126.303 122.859 126.303 123.2V126H125.583ZM134.969 127.44V126.776H136.001C136.332 126.776 136.588 126.685 136.769 126.504C136.956 126.328 137.049 126.077 137.049 125.752V122.256H135.209V121.6H137.769V125.752C137.769 126.269 137.609 126.68 137.289 126.984C136.969 127.288 136.54 127.44 136.001 127.44H134.969ZM137.369 120.808C137.193 120.808 137.054 120.763 136.953 120.672C136.852 120.581 136.801 120.459 136.801 120.304C136.801 120.144 136.852 120.019 136.953 119.928C137.054 119.832 137.193 119.784 137.369 119.784C137.545 119.784 137.684 119.832 137.785 119.928C137.886 120.019 137.937 120.144 137.937 120.304C137.937 120.459 137.886 120.581 137.785 120.672C137.684 120.763 137.545 120.808 137.369 120.808ZM141.478 126.08C140.971 126.08 140.566 125.931 140.262 125.632C139.958 125.328 139.806 124.917 139.806 124.4V121.6H140.526V124.4C140.526 124.731 140.611 124.989 140.782 125.176C140.953 125.357 141.185 125.448 141.478 125.448C141.777 125.448 142.011 125.357 142.182 125.176C142.358 124.989 142.446 124.731 142.446 124.4V121.6H143.166V124.4C143.166 124.917 143.011 125.328 142.702 125.632C142.393 125.931 141.985 126.08 141.478 126.08ZM144.411 126V121.6H145.043V122.128H145.187L145.075 122.32C145.075 122.075 145.139 121.88 145.267 121.736C145.4 121.592 145.579 121.52 145.803 121.52C146.048 121.52 146.237 121.611 146.371 121.792C146.504 121.973 146.571 122.229 146.571 122.56L146.355 122.128H146.691L146.539 122.32C146.539 122.075 146.605 121.88 146.739 121.736C146.877 121.592 147.059 121.52 147.283 121.52C147.56 121.52 147.773 121.624 147.923 121.832C148.077 122.04 148.155 122.315 148.155 122.656V126H147.491V122.648C147.491 122.467 147.451 122.325 147.371 122.224C147.296 122.123 147.184 122.072 147.035 122.072C146.891 122.072 146.776 122.123 146.691 122.224C146.611 122.32 146.571 122.459 146.571 122.64V126H145.995V122.648C145.995 122.461 145.952 122.32 145.867 122.224C145.787 122.123 145.672 122.072 145.523 122.072C145.373 122.072 145.261 122.123 145.187 122.224C145.112 122.32 145.075 122.459 145.075 122.64V126H144.411ZM149.416 127.44V121.6H150.136V122.44H150.28L150.136 122.608C150.136 122.272 150.245 122.008 150.464 121.816C150.688 121.619 150.981 121.52 151.344 121.52C151.786 121.52 152.138 121.667 152.4 121.96C152.666 122.248 152.8 122.645 152.8 123.152V124.44C152.8 124.776 152.738 125.067 152.616 125.312C152.498 125.557 152.33 125.747 152.112 125.88C151.898 126.013 151.642 126.08 151.344 126.08C150.986 126.08 150.696 125.981 150.472 125.784C150.248 125.587 150.136 125.323 150.136 124.992L150.28 125.16H150.12L150.136 126.16V127.44H149.416ZM151.104 125.456C151.408 125.456 151.645 125.365 151.816 125.184C151.992 125.003 152.08 124.741 152.08 124.4V123.2C152.08 122.859 151.992 122.597 151.816 122.416C151.645 122.235 151.408 122.144 151.104 122.144C150.81 122.144 150.576 122.237 150.4 122.424C150.224 122.611 150.136 122.869 150.136 123.2V124.4C150.136 124.731 150.224 124.989 150.4 125.176C150.576 125.363 150.81 125.456 151.104 125.456ZM155.877 126.08C155.53 126.08 155.226 126.011 154.965 125.872C154.709 125.733 154.509 125.539 154.365 125.288C154.226 125.032 154.157 124.736 154.157 124.4V123.2C154.157 122.859 154.226 122.563 154.365 122.312C154.509 122.061 154.709 121.867 154.965 121.728C155.226 121.589 155.53 121.52 155.877 121.52C156.223 121.52 156.525 121.589 156.781 121.728C157.042 121.867 157.242 122.061 157.381 122.312C157.525 122.563 157.597 122.859 157.597 123.2V123.976H154.861V124.4C154.861 124.747 154.949 125.013 155.125 125.2C155.301 125.381 155.551 125.472 155.877 125.472C156.154 125.472 156.378 125.424 156.549 125.328C156.719 125.227 156.823 125.077 156.861 124.88H157.581C157.533 125.248 157.351 125.541 157.037 125.76C156.727 125.973 156.341 126.08 155.877 126.08ZM156.893 123.496V123.2C156.893 122.853 156.805 122.587 156.629 122.4C156.458 122.213 156.207 122.12 155.877 122.12C155.551 122.12 155.301 122.213 155.125 122.4C154.949 122.587 154.861 122.853 154.861 123.2V123.432H156.949L156.893 123.496ZM159.161 126V121.6H159.865V122.44H160.033L159.801 122.96C159.801 122.485 159.903 122.128 160.105 121.888C160.313 121.643 160.62 121.52 161.025 121.52C161.489 121.52 161.857 121.667 162.129 121.96C162.407 122.248 162.545 122.64 162.545 123.136V123.4H161.825V123.2C161.825 122.853 161.74 122.589 161.569 122.408C161.404 122.221 161.167 122.128 160.857 122.128C160.553 122.128 160.313 122.221 160.137 122.408C159.967 122.595 159.881 122.859 159.881 123.2V126H159.161ZM165.334 126.064C165.036 126.064 164.774 126.019 164.55 125.928C164.332 125.832 164.156 125.699 164.022 125.528C163.894 125.357 163.817 125.155 163.79 124.92H164.51C164.542 125.075 164.628 125.197 164.766 125.288C164.91 125.379 165.1 125.424 165.334 125.424H165.67C165.953 125.424 166.164 125.368 166.302 125.256C166.441 125.139 166.51 124.984 166.51 124.792C166.51 124.605 166.446 124.459 166.318 124.352C166.196 124.24 166.012 124.165 165.766 124.128L165.174 124.032C164.742 123.957 164.42 123.824 164.206 123.632C163.998 123.435 163.894 123.149 163.894 122.776C163.894 122.381 164.02 122.077 164.27 121.864C164.521 121.645 164.897 121.536 165.398 121.536H165.702C166.124 121.536 166.462 121.635 166.718 121.832C166.974 122.029 167.129 122.296 167.182 122.632H166.462C166.43 122.493 166.35 122.384 166.222 122.304C166.094 122.219 165.921 122.176 165.702 122.176H165.398C165.126 122.176 164.926 122.227 164.798 122.328C164.676 122.429 164.614 122.581 164.614 122.784C164.614 122.965 164.668 123.099 164.774 123.184C164.881 123.269 165.049 123.331 165.278 123.368L165.87 123.464C166.345 123.539 166.689 123.677 166.902 123.88C167.121 124.083 167.23 124.376 167.23 124.76C167.23 125.165 167.1 125.485 166.838 125.72C166.582 125.949 166.193 126.064 165.67 126.064H165.334Z" fill="white"/>
</svg>
